HIERARCHY
ROOT root
{
	OFFSET 0.000000 0.000000 0.000000
	CHANNELS 6 Xposition Yposition Zposition Zrotation Yrotation Xrotation
	JOINT lhip
	{
		OFFSET 0.058581 -0.082280 -0.017664
		CHANNELS 3 Zrotation Yrotation Xrotation
		JOINT lknee
		{
			OFFSET 0.043451 -0.386469 0.008037
			CHANNELS 3 Zrotation Yrotation Xrotation
			JOINT lankle
			{
				OFFSET -0.014790 -0.426874 -0.037428
				CHANNELS 3 Zrotation Yrotation Xrotation
				JOINT ltoe
				{
					OFFSET 0.041054 -0.060286 0.122042
					CHANNELS 3 Zrotation Yrotation Xrotation
					End Site
					{
						OFFSET 0.000000 0.000000 0.000000
					}
				}
			}
		}
	}
	JOINT rhip
	{
		OFFSET -0.060310 -0.090513 -0.013543
		CHANNELS 3 Zrotation Yrotation Xrotation
		JOINT rknee
		{
			OFFSET -0.043257 -0.383688 -0.004843
			CHANNELS 3 Zrotation Yrotation Xrotation
			JOINT rankle
			{
				OFFSET 0.019056 -0.420046 -0.034562
				CHANNELS 3 Zrotation Yrotation Xrotation
				JOINT rtoe
				{
					OFFSET -0.034840 -0.062106 0.130323
					CHANNELS 3 Zrotation Yrotation Xrotation
					End Site
					{
						OFFSET 0.000000 0.000000 0.000000
					}
				}
			}
		}
	}
	JOINT lowerback
	{
		OFFSET 0.004439 0.124404 -0.038385
		CHANNELS 3 Zrotation Yrotation Xrotation
		JOINT upperback
		{
			OFFSET 0.004488 0.137956 0.026820
			CHANNELS 3 Zrotation Yrotation Xrotation
			JOINT chest
			{
				OFFSET -0.002265 0.056032 0.002855
				CHANNELS 3 Zrotation Yrotation Xrotation
				JOINT lowerneck
				{
					OFFSET -0.013390 0.211636 -0.033468
					CHANNELS 3 Zrotation Yrotation Xrotation
					JOINT upperneck
					{
						OFFSET 0.010113 0.088937 0.050410
						CHANNELS 3 Zrotation Yrotation Xrotation
						End Site
						{
							OFFSET 0.000000 0.000000 0.000000
						}
					}
				}
				JOINT lclavicle
				{
					OFFSET 0.071702 0.114000 -0.018898
					CHANNELS 3 Zrotation Yrotation Xrotation
					JOINT lshoulder
					{
						OFFSET 0.122921 0.045205 -0.019046
						CHANNELS 3 Zrotation Yrotation Xrotation
						JOINT lelbow
						{
							OFFSET 0.255332 -0.015649 -0.022946
							CHANNELS 3 Zrotation Yrotation Xrotation
							JOINT lwrist
							{
								OFFSET 0.265709 0.012698 -0.007375
								CHANNELS 3 Zrotation Yrotation Xrotation
								End Site
								{
									OFFSET 0.000000 0.000000 0.000000
								}
							}
						}
					}
				}
				JOINT rclavicle
				{
					OFFSET -0.082954 0.112472 -0.023707
					CHANNELS 3 Zrotation Yrotation Xrotation
					JOINT rshoulder
					{
						OFFSET -0.113228 0.046853 -0.008472
						CHANNELS 3 Zrotation Yrotation Xrotation
						JOINT relbow
						{
							OFFSET -0.260127 -0.014369 -0.031269
							CHANNELS 3 Zrotation Yrotation Xrotation
							JOINT rwrist
							{
								OFFSET -0.269108 0.006794 -0.006027
								CHANNELS 3 Zrotation Yrotation Xrotation
								End Site
								{
									OFFSET 0.000000 0.000000 0.000000
								}
							}
						}
					}
				}
			}
		}
	}
}
MOTION
Frames: 7
Frame Time: 0.033333
0.456399 0.206766 0.997771 94.274234 0.230685 94.344945 -4.599618 0.880970 4.038244 0.593678 -14.619540 9.825458 2.956585 14.696123 -21.556362 0.000000 -0.000000 0.000000 -3.802535 3.775227 -38.921057 -0.688716 3.331305 10.496314 2.583114 -7.552946 1.598248 0.000000 -0.000000 0.000000 -0.302737 -5.264666 6.407864 4.614064 -1.228083 4.496766 0.040084 -1.146851 -10.692964 -2.998577 -2.384641 -4.029400 2.904318 4.491038 7.086777 -32.384171 5.175321 -5.471378 -49.034070 -5.783300 22.269354 9.509550 -33.712475 -3.569938 -6.825986 -11.871143 12.421337 30.902346 -5.059675 -3.551506 45.785903 -6.295727 16.960932 1.090249 19.927112 1.765623 9.469060 8.594591 9.754585 
0.490115 0.203233 0.992467 95.350388 0.202440 94.295110 -3.599942 1.207603 6.420184 0.248146 -15.566114 10.200369 2.410539 14.220417 -22.163705 0.000000 -0.000000 0.000000 -4.044188 3.535073 -39.087538 -0.385180 2.315807 12.065671 2.903628 -7.616632 1.800442 0.000000 -0.000000 0.000000 -0.105405 -5.840364 6.466097 4.668306 -1.120997 4.261353 0.016026 -1.276886 -10.658127 -2.920844 -2.543260 -3.551680 2.646906 3.710183 6.800577 -32.315883 5.263995 -5.582667 -49.848213 -5.824962 22.587056 9.527559 -32.519830 -3.610760 -6.982983 -12.408181 13.176863 30.961657 -4.961741 -3.531792 45.540229 -6.327926 16.767190 1.103934 20.002946 1.486824 9.892948 9.621257 10.334655 
0.526229 0.198463 0.987644 96.336033 0.242704 94.098831 -2.291214 1.114350 8.313417 -0.930721 -16.681956 12.366354 2.037266 14.279542 -22.040337 0.000000 -0.000000 0.000000 -3.961385 3.673112 -39.022935 -0.037170 1.248007 16.006182 2.392409 -8.467877 4.079362 0.000000 -0.000000 0.000000 0.131418 -6.369327 6.091497 4.864695 -1.085624 4.501342 -0.182954 -1.430632 -10.314638 -3.018257 -2.545240 -3.957852 2.380632 3.872337 6.715133 -32.558360 5.071349 -5.478724 -49.884538 -5.306009 22.447327 9.466217 -31.623699 -3.408270 -7.744876 -10.770549 12.731948 31.065344 -4.957041 -3.925478 45.128243 -5.971129 16.391627 1.210559 19.340787 1.643648 10.692747 7.623857 10.261701 
0.562663 0.193080 0.984840 96.642765 0.471214 94.345758 -1.175401 0.199195 8.866565 -2.132592 -15.819533 15.886307 1.062021 13.952692 -21.414961 0.000000 -0.000000 0.000000 -3.506612 3.761788 -39.734038 0.534127 0.560924 20.401405 2.268536 -7.543579 7.421105 0.000000 -0.000000 0.000000 -0.219407 -6.378942 4.975464 5.369028 -0.861929 4.389047 0.152942 -1.108098 -9.413516 -1.827032 -1.463745 -4.210768 0.961630 2.626552 7.211658 -31.253483 5.309148 -5.878625 -52.580240 -5.048363 22.536511 8.970894 -28.198020 -2.259484 -8.167373 -11.596520 13.940429 31.119414 -4.458806 -3.992544 44.613418 -5.767369 15.503955 1.055347 19.027044 -0.209154 10.667946 9.191627 11.858139 
0.600172 0.187475 0.986431 96.486297 0.840323 94.282356 0.142172 -0.843556 8.446138 -4.871800 -15.061521 21.847121 0.415791 14.822192 -18.874815 0.000000 -0.000000 0.000000 -3.189450 4.715267 -39.697877 1.853211 0.375214 24.970926 1.144063 -8.578527 7.542608 0.000000 -0.000000 0.000000 0.462960 -6.601744 4.267210 5.393253 -1.003796 4.809891 -0.028955 -1.336242 -9.146792 -1.609086 -1.285598 -5.222431 0.295206 3.224704 7.740615 -31.972663 4.734026 -6.188121 -51.709099 -1.830889 20.636689 9.094255 -28.502141 -1.404696 -8.052963 -8.983107 12.383970 31.412269 -3.068238 -3.567515 44.148712 -5.105695 15.277422 0.806344 17.839450 0.122201 9.775069 7.372439 9.753353 
0.636791 0.181201 0.990844 95.516392 1.290013 93.672965 1.928247 -1.578377 6.753910 -8.298809 -11.842797 30.279476 -0.997009 14.136207 -13.625149 0.000000 -0.000000 0.000000 -2.395508 6.602950 -37.953148 2.972527 0.270964 27.959712 -0.911288 -9.046453 5.386964 0.000000 -0.000000 0.000000 0.631699 -6.304730 4.246418 5.355951 -0.563595 4.582430 -0.019615 -1.041367 -8.513428 -0.592176 -0.415945 -5.582305 -0.418782 2.444922 8.469817 -31.129881 5.408013 -6.148009 -52.576683 -0.666241 19.746893 8.290366 -26.799701 -0.084922 -9.393161 -8.582942 12.451670 31.701532 -2.389773 -3.413238 43.872048 -3.636914 15.241169 0.417332 15.464007 -0.734025 9.515988 6.752663 9.627602 
0.672127 0.176521 0.995881 94.834486 1.286179 93.259718 3.198068 -2.375444 2.783940 -10.561391 -7.495725 40.223094 -1.745576 12.823791 -6.240757 0.000000 -0.000000 0.000000 -1.614414 7.862956 -35.634362 3.130312 0.046920 29.716190 -2.522301 -8.896365 2.829214 0.000000 -0.000000 0.000000 -0.357244 -5.634267 4.514526 5.417351 -0.241597 3.390145 0.447806 -0.183906 -7.806763 0.557351 -0.251366 -4.949701 -0.825324 1.184493 9.525212 -28.493501 6.966827 -3.666899 -55.855133 -2.027820 20.205156 8.010705 -23.928173 1.298081 -10.970349 -8.613556 14.121925 31.446389 -2.640463 -3.357239 44.619280 -2.567431 14.951980 -0.781085 14.021440 -3.265961 10.311724 5.848549 11.417001 
